<svg width="24" height="24" viewBox="0 0 24 24" fill="none" xmlns="http://www.w3.org/2000/svg">
<path d="M9.70994 10.46H11.9489C12.1534 10.46 12.3495 10.3787 12.4941 10.2341C12.6387 10.0895 12.7199 9.89344 12.7199 9.68895C12.7199 9.48447 12.6387 9.28836 12.4941 9.14377C12.3495 8.99918 12.1534 8.91795 11.9489 8.91795H9.70994C9.50546 8.91795 9.30935 8.99918 9.16476 9.14377C9.02017 9.28836 8.93894 9.48447 8.93894 9.68895C8.93894 9.89344 9.02017 10.0895 9.16476 10.2341C9.30935 10.3787 9.50546 10.46 9.70994 10.46ZM19.4279 2.00195H4.55494C3.876 2.00459 3.22562 2.27546 2.74554 2.75555C2.26545 3.23563 1.99458 3.88601 1.99194 4.56495V19.438C1.99431 20.1171 2.26507 20.7677 2.74519 21.248C3.2253 21.7283 3.87583 21.9993 4.55494 22.002H19.4279C20.1072 21.9996 20.758 21.7287 21.2383 21.2484C21.7187 20.768 21.9896 20.1172 21.9919 19.438V4.56495C21.9893 3.88584 21.7183 3.23531 21.238 2.7552C20.7577 2.27508 20.1071 2.00432 19.4279 2.00195ZM18.3559 11.68L18.3359 14.355C18.328 15.422 17.8996 16.4428 17.1436 17.1959C16.3875 17.9489 15.365 18.3733 14.2979 18.377H9.65794C8.58969 18.3746 7.56564 17.9503 6.80877 17.1964C6.0519 16.4426 5.62353 15.4202 5.61694 14.352V9.65695C5.62301 8.58792 6.05118 7.56458 6.80824 6.80978C7.56529 6.05497 8.5899 5.62984 9.65894 5.62695H12.4819C13.1324 5.73988 13.7497 5.9958 14.2892 6.37625C14.8288 6.7567 15.2771 7.25219 15.6019 7.82695C15.8245 8.24937 15.9482 8.71677 15.9639 9.19395C16.0319 9.69995 16.0669 10.075 16.2939 10.284C16.6139 10.573 17.8019 10.378 18.0369 10.562L18.2149 10.702L18.3249 10.923L18.3599 11.101L18.3559 11.68ZM14.2589 13.543H9.70994C9.51103 13.543 9.32027 13.622 9.17961 13.7626C9.03896 13.9033 8.95994 14.094 8.95994 14.293C8.95994 14.4919 9.03896 14.6826 9.17961 14.8233C9.32027 14.9639 9.51103 15.043 9.70994 15.043H14.2589C14.4579 15.043 14.6486 14.9639 14.7893 14.8233C14.9299 14.6826 15.0089 14.4919 15.0089 14.293C15.0089 14.094 14.9299 13.9033 14.7893 13.7626C14.6486 13.622 14.4579 13.543 14.2589 13.543Z" fill="white"/>
</svg>
