<svg width="24" height="24" viewBox="0 0 24 24" fill="none" xmlns="http://www.w3.org/2000/svg">
<path d="M13.293 3.95994C13.7347 3.51114 14.2609 3.15422 14.8413 2.90977C15.4216 2.66532 16.0446 2.53818 16.6743 2.53568C17.304 2.53318 17.928 2.65537 18.5103 2.8952C19.0926 3.13503 19.6216 3.48775 20.0669 3.93304C20.5122 4.37832 20.8649 4.90735 21.1047 5.48962C21.3445 6.07189 21.4667 6.69587 21.4642 7.3256C21.4617 7.95532 21.3346 8.57831 21.0901 9.15866C20.8457 9.739 20.4888 10.2652 20.04 10.7069L17.01 13.7369L15.595 12.3239L18.625 9.29294C19.1448 8.77339 19.4369 8.06861 19.4371 7.33365C19.4373 6.5987 19.1455 5.89377 18.626 5.37394C18.1064 4.85412 17.4016 4.56198 16.6667 4.56179C15.9317 4.56161 15.2268 4.85339 14.707 5.37294L11.676 8.40394L10.262 6.98994L13.293 3.95994ZM15.413 9.99994L9.99797 15.4139L8.58397 13.9999L13.998 8.58595L15.413 9.99994ZM8.40297 11.6759L5.37297 14.7069C4.85315 15.2268 4.56111 15.9318 4.56111 16.6669C4.56111 17.4021 4.85315 18.1071 5.37297 18.6269C5.8928 19.1468 6.59783 19.4388 7.33297 19.4388C8.06811 19.4388 8.77315 19.1468 9.29297 18.6269L12.323 15.5959L13.737 17.0099L10.707 20.0399C9.81226 20.9348 8.59873 21.4376 7.33332 21.4376C6.06792 21.4377 4.85431 20.9352 3.95947 20.0404C3.06463 19.1457 2.56186 17.9322 2.56177 16.6668C2.56167 15.4014 3.06426 14.1878 3.95897 13.2929L6.98897 10.2629L8.40297 11.6759Z" fill="white"/>
</svg>
